<svg xmlns="http://www.w3.org/2000/svg" viewBox="0 0 64 64" role="img" aria-label="Pratham Patel monogram">
  <rect width="64" height="64" rx="12" fill="#070b12"/>
  <rect x="1" y="1" width="62" height="62" rx="11" fill="none" stroke="#25364b" stroke-width="2"/>
  <path d="M15 18h11c7 0 11 4 11 10s-4 10-11 10h-5v9h-6V18Zm6 6v8h5c3 0 5-1 5-4s-2-4-5-4h-5Z" fill="#e9eef6"/>
  <path d="M37 18h7c8 0 13 4 13 10s-5 10-13 10h-1v9h-6V18Zm6 6v8h2c4 0 6-1 6-4s-2-4-6-4h-2Z" fill="#e9eef6"/>
  <path d="M42 51h14" stroke="#4cc2ff" stroke-width="3" stroke-linecap="round"/>
</svg>
